<?xml version="1.0" encoding="UTF-8"?>
<svg id="Layer_1" xmlns="http://www.w3.org/2000/svg" viewBox="0 0 1489 178.81"><defs><style>.cls-1{fill:#009366;}.cls-2{fill:#c8b317;}.cls-3{fill:#017a4d;}.cls-4{fill:#004785;}</style></defs><g><path class="cls-2" d="M1450.79,145.85c-12.78,3.91-10.88,6.68-30.25,3.05-3.49-.66-17.58-3.51-7.86-8.74,4.61-2.48,9.61-3.49,9.61-3.49,0,0,1.75,3.93,6.33,5.24,8.19,2.33,22.17,3.94,22.17,3.94"/><path class="cls-2" d="M1444.99,135.02c-3.93,0-10.48-.97-10.48-.97l5.56-3.28s8.84,4.25,4.92,4.25m36.68-4.9c-1.97-7.21-16.38-13.11-16.38-13.11,0,0-3.33-1.95-9.85-1.95-.21,0-.43,0-.65,.01-.44,.01-.89,.03-1.35,.05-.23,.01-.47,.03-.7,.05,4.65,1.69,13.25,4.5,16.65,6.42,4.78,2.7,10.46,9.31,8.84,16.38-1.78,7.66-10.88,19.07-11.45,19.77,3.99-7.53,6.15-13.25,7.03-17.66,1.01-4.97,.41-8.26-.92-10.62-2.06-3.58-5.86-4.98-8.41-6.73-2.75-1.88-17.72-6.03-18.92-6.35-7.66,2-6.47,11.76-8.43,12.42l-8.3,6.11s2.83,2.09,6.96,3.14c.69,.17,1.41,.32,2.16,.43,.38,.05,.77,.09,1.16,.12,.39,.03,.79,.04,1.19,.04,1.21,0,2.34,.08,3.37,.21,.69,.08,1.35,.19,1.97,.32,3.41,.71,5.74,2.06,7.09,3.41,1.97,1.96,2.16,5.86,2.62,10.48,.55,5.45-1.2,15.48-1.2,15.48,0,0,7.67-2.31,14.3-8.87,.22-.21,.44-.44,.66-.67,.12-.12,.22-.24,.32-.35,.1-.12,.22-.23,.32-.35,.2-.21,.4-.44,.61-.68,.14-.16,.29-.32,.43-.51,.01-.01,.03-.04,.04-.05,.06-.08,.13-.16,.19-.24,.08-.09,.15-.19,.23-.3,.09-.12,.18-.22,.29-.35,.27-.32,.53-.67,.8-1.02,.23-.3,.47-.61,.7-.92,1.4-1.89,2.85-3.99,4.1-5.96,1.04-1.63,1.93-3.16,2.54-4.39,1.97-3.93,3.44-8.35,1.97-13.74"/></g><path class="cls-3" d="M1445.4,116.42s.17-.07,.6-.14c-.17,.04-.34,.08-.51,.12-.03,0-.05,.02-.08,.02"/><g><path class="cls-4" d="M845,153.19v-11.15c-1.51,.5-3.11,.7-4.62,.7-5.43,0-8.14-3.21-8.14-8.14v-21.2h12.76v-11.65h-12.46v-15.07h-13.46v15.07h-6.83v11.65h6.83v20.29c0,14.06,7.33,21,18.49,21,2.61,0,5.22-.6,7.43-1.51m-61.69,1.51c13.56,0,22-6.83,22-16.78,0-17.68-26.72-14.37-26.72-21.7,0-2.91,4.12-4.52,9.54-4.52,4.62,0,9.34,1.11,14.47,3.42v-11.45c-4.32-1.91-10.25-3.11-15.07-3.11-11.65,0-21.2,6.33-21.2,16.68,0,17.28,26.32,14.57,26.32,21.6,0,2.81-4.02,4.62-10.05,4.62s-11.15-1.61-17.08-4.72v12.06c3.62,1.81,10.15,3.92,17.78,3.92m-62.79-16.88c0-4.62,3.52-6.93,10.45-6.93h10.55v3.52c0,5.62-6.23,9.95-12.96,9.95-5.22,0-8.04-2.41-8.04-6.53m21.5,15.67h12.36v-29.24c0-13.76-7.13-23.71-23.71-23.71-7.13,0-13.16,1.61-18.49,4.92v11.15c5.02-3.21,10.25-4.72,15.77-4.72,8.84,0,13.36,3.72,13.36,9.64v.7h-10.05c-14.37,0-22.81,6.23-22.81,17.18,0,9.54,5.93,15.27,15.77,15.27,7.53,0,13.86-3.42,17.78-9.04v7.84Zm-81.78-25.72c0-8.34,6.03-15.07,13.56-15.07s13.56,6.73,13.56,14.97-6.03,14.87-13.56,14.87-13.56-6.63-13.56-14.77m13.56,26.93c14.87,0,26.82-12.06,26.82-27.03s-11.96-27.12-26.82-27.12-26.83,12.16-26.83,27.02,11.96,27.13,26.83,27.13m-55.56,0c6.43,0,15.17-1.41,19.89-4.32v-13.86c-4.92,2.91-11.45,4.72-17.88,4.72-14.97,0-24.31-9.54-24.31-22.91s8.74-23.11,24.01-23.11c6.63,0,13.06,1.91,18.18,4.92v-13.76c-5.22-2.91-13.26-4.42-19.79-4.42-22.2,0-36.87,16.98-36.87,36.37s14.87,36.37,36.77,36.37m-91.62-57.06v4.12h-6.93v11.65h6.93v40.09h13.36v-40.09h10.05v-11.65h-10.45v-2.71c0-6.43,2.91-9.34,7.74-9.34,1.91,0,3.82,.4,5.53,1.31v-10.75c-2.41-1.21-5.53-1.81-8.74-1.81-10.45,0-17.48,7.63-17.48,19.19m-31.14,55.86h13.66V79.65h-13.66v73.84Zm-40.69,1.21c7.43,0,12.76-3.62,16.07-10.45v9.24h13.36v-51.74h-13.76v26.72c0,8.94-4.12,14.47-11.05,14.47-2.71,0-5.02-.9-6.63-2.51-2.11-2.11-2.91-5.73-2.91-9.14v-29.54h-13.66v30.94c0,7.13,1.81,12.96,5.32,16.68,3.21,3.42,7.74,5.33,13.26,5.33m-56.16,0c9.04,0,19.79-2.71,25.72-6.83v-34.56h-27.12v11.96h13.86v13.96c-3.42,1.61-6.93,2.21-10.75,2.21-14.97,0-25.12-9.44-25.12-23.01s10.45-23.11,25.72-23.11c6.43,0,14.17,1.71,19.49,5.23v-14.06c-6.43-3.11-15.07-4.52-21.4-4.52-21.3,0-37.88,14.77-37.88,36.27s15.77,36.47,37.48,36.47m-106.89-16.88c0-4.62,3.52-6.93,10.45-6.93h10.55v3.52c0,5.62-6.23,9.95-12.96,9.95-5.23,0-8.04-2.41-8.04-6.53m21.5,15.67h12.36v-29.24c0-13.76-7.13-23.71-23.71-23.71-7.13,0-13.16,1.61-18.49,4.92v11.15c5.02-3.21,10.25-4.72,15.77-4.72,8.84,0,13.36,3.72,13.36,9.64v.7h-10.05c-14.37,0-22.81,6.23-22.81,17.18,0,9.54,5.93,15.27,15.77,15.27,7.54,0,13.86-3.42,17.78-9.04v7.84Zm-83.68-25.82c0-8.34,5.73-15.07,13.26-15.07s13.46,6.63,13.46,15.07-5.73,14.97-13.46,14.97-13.26-6.63-13.26-14.97m10.95,27.03c6.03,0,11.86-3.42,16.07-8.34v7.13h12.16V79.65h-13.46v28.23c-4.22-4.42-9.74-7.33-15.67-7.33-13.16,0-23.81,11.85-23.81,27.12s10.95,27.03,24.71,27.03m-49.83-60.98h14.06v-11.76h-14.06v11.76Zm.2,59.78h13.66v-51.74h-13.66v51.74Zm-41.69,0h13.66v-21.9c0-10.75,5.93-18.08,14.77-18.08,1.31,0,2.61,.2,3.82,.4v-13.26l-.7-.1c-9.04,0-15.47,4.22-18.69,11.85v-10.65h-12.86v51.74Zm-51.64-25.72c0-8.34,6.03-15.07,13.56-15.07s13.56,6.73,13.56,14.97-6.03,14.87-13.56,14.87-13.56-6.63-13.56-14.77m13.56,26.93c14.87,0,26.82-12.06,26.82-27.03s-11.96-27.12-26.82-27.12-26.83,12.16-26.83,27.02,11.96,27.13,26.83,27.13m-51.74-1.21h13.66V79.65h-13.66v73.84Zm-59.37,0H13.66v-25.92h28.53v-12.76H13.66v-18.79H47.82v-12.86H0v70.32Z"/><path class="cls-4" d="M1479.7,143.87c-.61,1.23-1.5,2.76-2.54,4.39-1.25,1.97-2.7,4.07-4.1,5.96-.23,.31-.47,.62-.7,.92-.27,.35-.53,.7-.8,1.02-.1,.13-.19,.23-.28,.35-.08,.1-.16,.21-.23,.3-.07,.08-.12,.16-.18,.24-.01,.01-.04,.04-.05,.05-.14,.18-.29,.35-.43,.51-.19,.25-.4,.48-.6,.69-.1,.12-.22,.23-.34,.35-.1,.12-.21,.23-.32,.35-.22,.23-.44,.47-.66,.67-6.63,6.56-14.3,8.87-14.3,8.87,0,0,1.75-10.03,1.21-15.48-.45-4.61-.65-8.52-2.62-10.48-1.35-1.35-3.68-2.7-7.09-3.41-.62-.13-1.28-.25-1.97-.32-1.04-.12-2.17-.19-3.37-.19-.4,0-.8-.01-1.19-.05-.39-.03-.78-.07-1.15-.12-.75-.1-1.48-.25-2.17-.43-4.14-1.05-6.96-3.14-6.96-3.14l8.3-6.11c1.96-.66,.76-10.42,8.43-12.42,.14-.04,.26-.08,.6-.15,2.43-.57,4.62-.91,6.59-1.05,.23-.02,.46-.04,.7-.05,.47-.04,.91-.05,1.35-.05,.22-.01,.44-.01,.65-.01,6.52,0,9.85,1.95,9.85,1.95,0,0,14.41,5.9,16.38,13.11,1.46,5.39,0,9.81-1.97,13.74m-59.16,5.03c-3.49-.66-17.58-3.51-7.86-8.74,4.61-2.48,9.61-3.49,9.61-3.49,0,0,1.75,3.93,6.33,5.24,8.19,2.33,22.17,3.94,22.17,3.94-12.78,3.91-10.88,6.68-30.25,3.05m-48.5-125.75h-.03l.03-.03v.03Zm116.11,105.33c-2.65-9.72-16.21-16-20.41-17.74-.27-.13-.78-.36-1.48-.63,.82-1.32,1.5-2.83,2.1-4.51,.66-1.89,1.04-4.25,1.04-6.47,0-2.88-.62-7.08-3.59-10.63-4.41-5.29-9.83-8.96-22.01-9.74-3.88-.25-8.42-1.31-10.35-1.79-6.33-7.2-11.37-14.34-15.31-25.41-4.07-11.41-6.41-26.8-6.42-26.96l-.45-3.03-7.33,5.5c-8.17,4.02-11.02,15.97-11.03,16.09,0,.04,0,.07-.01,.09-2.94-3.31-5.8-6.9-8.62-10.88-4.37-6.13-5.34-10.24-5.38-10.41l-2.55-12.13-9.13,8.34c-2.68,2.44-5.8,7.82-5.82,14.97-10.1-10.52-11.86-19.29-11.93-19.67l-2.32-13.46-9.65,9.63c-4.29,4.3-10.58,15.65-10.96,26.84-.49-1.16-.83-2.01-.96-2.37h-.02s-3.38-9.56-3.38-9.56l-7.79,6.5c-4.94,4.12-7.9,12.15-7.9,21.48,0,1.16,.24,3.32,.61,5.86v.02c3.94,14.9,13.45,22.48,24.08,26.06,.1-.07,.21-.13,.31-.19,0,0-9.33-5.23-13.11-13.11-7.64-15.93-4.37-30.56,.88-34.93,0,0,3.96,11.21,10.9,18.35,9.18,9.39,23.14,11.35,23.14,11.35-8.73-5.89-13.1-10.04-18.11-21.82-4.03-9.45,2.4-24.45,7.64-29.69,0,0,1.75,11.35,14.85,24.44,.3,.31,.75,.7,1.3,1.17,.21,.18,.43,.36,.66,.56,.48,.39,1.01,.8,1.58,1.26,.23,.18,.47,.36,.71,.56,.07,.04,.12,.09,.18,.13,.16,.12,.31,.25,.47,.36,.15,.13,.31,.24,.48,.36,.08,.07,.16,.13,.25,.19,.07,.05,.12,.09,.18,.14,.94,.71,1.92,1.45,2.93,2.22,.27,.21,.55,.4,.82,.61,.36,.27,.73,.53,1.09,.8,.36,.27,.73,.55,1.09,.82,.73,.55,1.45,1.08,2.17,1.6,.35,.26,.7,.51,1.05,.77,.69,.5,1.35,.98,1.98,1.44,.7,.51,1.36,.97,1.96,1.41,.35,.26,.69,.51,1,.73,.31,.24,.61,.43,.87,.62,.17,.12,.32,.23,.47,.34,.15,.1,.29,.19,.4,.29,.35,.25,.57,.4,.62,.44-.42-.52-9.28-11.86-10.68-18.54-1.96-9.39,3.06-13.76,3.06-13.98,0,.22,.97,5.25,6.55,13.1,13.98,19.65,24.67,25.33,24.67,25.33-4.37-5.9-3.93-12.89-3.27-17.69,.53-3.91,3.05-10.05,5.45-10.27,0,0,1.75,7.87,6.12,20.08,4.8,13.46,10.92,21.39,18.01,29.27,.08,.08,7.66,2.2,13.86,2.61,10.27,.65,13.76,3.27,17.02,7.2,2.97,3.57,1.83,8.8,1.31,10.27-1.75,5.02-4.21,6.7-7.42,7.42-5.9,1.31-10.04,.44-14.41-.87,0,0-.05,20.99-19.44,22.48-2.84,.22-13.34,9.09-19.43,8.95-10.39-.23-18.23-1.32-24.91-3,11.35,5.24,25.52,10.14,26.61,10.14h.04c2.07,3.83,6.95,6.22,15.84,7.88,13.38,2.51,23.39,.57,29.15-1.32,0,.31,.01,.64,.01,.97,0,4.03-.87,9.92-1.2,11.85l-1.95,11.25,10.94-3.28c1.09-.34,10.89-3.49,18.83-12.28,3.53-3.9,8.78-11.54,11-16,1.54-3.09,3.32-7.3,3.32-12.53,0-2.07-.29-4.17-.86-6.25"/><path class="cls-4" d="M1444.99,135.02c-3.93,0-10.48-.97-10.48-.97l5.56-3.28s8.84,4.25,4.91,4.25"/><path class="cls-4" d="M1404.57,109.85c.47,.19,.95,.38,1.44,.57,1.66,.65,3.32,1.29,4.99,1.89,1.83,.66,3.69,1.27,5.58,1.79,.94,.26,1.9,.49,2.87,.7-.39,4.07-3.83,7.26-8,7.26-4.43,0-8.04-3.61-8.04-8.05,0-1.52,.43-2.94,1.17-4.16m-14.96-7.3c2.71,5,7.53,13.37,12.15,18.86,12.41,14.73,26.65-2.93,26.65-2.93,0,0,0-1.17-.77-2.77,.79,0,1.59,0,2.4-.05,8.64-.49,9.75-9.22,5.56-13.71,.54,4.13-1.82,8.48-7.84,8.82-1.63,.09-3.2,.11-4.73,.05-.76-.03-1.5-.08-2.24-.15-.04,0-.07,0-.11-.01-.73-.07-1.45-.15-2.16-.26,.03,0,.07,.01,.11,.02-.91-.13-1.81-.29-2.7-.48-.03,0-.07-.02-.1-.02-.38-.08-.75-.17-1.12-.26-.07-.02-.13-.03-.2-.05-.36-.09-.72-.18-1.07-.28-.07-.02-.14-.04-.21-.06-.36-.1-.72-.2-1.07-.31,0,0,0,0,0,0-.7-.21-1.39-.45-2.08-.7-.13-.05-.27-.09-.4-.14-.24-.09-.47-.18-.7-.27-.22-.09-.44-.17-.66-.26-.22-.09-.43-.18-.65-.27-.21-.09-.42-.18-.63-.27-.4-.17-.8-.35-1.2-.54-.15-.07-.3-.14-.45-.21-.55-.25-1.09-.52-1.64-.79-.76-.38-1.5-.75-2.22-1.12-.13-.07-.27-.14-.4-.2-.71-.36-1.4-.71-2.08-1.06-.11-.06-.22-.11-.33-.17-10.61-5.47-17.11-9.67-19.52-15.43,.08,.71,.21,1.48,.4,2.32,1.15,4.99,4.24,8.93,10.04,12.68"/></g><g><path class="cls-1" d="M1324.2,174.39c11.25,0,19.49-7.03,24.61-20.7l19.79-51.94h-14.97l-11.55,37.87-14.47-37.87h-15.17l23.21,52.64c-2.71,5.42-6.73,8.04-12.46,8.04-3.62,0-6.73-.6-9.64-2.01v11.55c3.01,1.51,6.63,2.41,10.65,2.41m-18.58-21.2v-11.15c-1.5,.5-3.11,.7-4.62,.7-5.43,0-8.14-3.21-8.14-8.14v-21.2h12.76v-11.65h-12.46v-15.07h-13.46v15.07h-6.83v11.65h6.83v20.29c0,14.07,7.33,21,18.49,21,2.61,0,5.22-.6,7.43-1.51m-56.96-59.47h14.06v-11.76h-14.06v11.76Zm.2,59.78h13.66v-51.74h-13.66v51.74Zm-33.35,1.21c13.56,0,22-6.83,22-16.78,0-17.68-26.73-14.37-26.73-21.7,0-2.91,4.12-4.52,9.54-4.52,4.62,0,9.34,1.11,14.47,3.42v-11.45c-4.32-1.91-10.25-3.11-15.07-3.11-11.65,0-21.2,6.33-21.2,16.68,0,17.28,26.32,14.57,26.32,21.6,0,2.81-4.02,4.62-10.05,4.62s-11.15-1.61-17.08-4.72v12.05c3.62,1.81,10.15,3.92,17.78,3.92m-56.56-1.21h13.66v-21.9c0-10.75,5.93-18.08,14.77-18.08,1.31,0,2.61,.2,3.82,.4v-13.26l-.7-.1c-9.04,0-15.47,4.22-18.69,11.86v-10.65h-12.86v51.74Zm-48.02-30.94c1.11-6.63,5.73-11.25,12.06-11.25s10.65,4.72,11.65,11.25h-23.71Zm14.57,32.15c6.33,0,12.76-1.81,18.39-5.73v-11.85c-4.92,3.72-11.15,6.03-17.68,6.03-9.04,0-14.97-4.92-15.47-11.45h36.47c.1-.9,.1-1.91,.1-2.81,0-17.68-9.54-28.33-23.81-28.33s-25.22,12.46-25.22,27.73,10.75,26.42,27.22,26.42m-65.5-1.21h13.36l21.6-51.74h-15.17l-13.16,37.37-13.06-37.37h-15.27l21.7,51.74Zm-43.3-59.78h14.06v-11.76h-14.06v11.76Zm.2,59.78h13.66v-51.74h-13.66v51.74Zm-26.62-27.83v27.83h13.66v-31.24c0-13.66-7.33-21.7-18.49-21.7-7.74,0-13.56,3.92-16.68,10.25v-9.04h-13.26v51.74h13.66v-27.83c0-7.94,4.42-13.16,10.55-13.16,6.63,0,10.55,4.82,10.55,13.16m-76.05,29.03c18.28,0,30.24-10.05,30.24-31.75v-39.78h-13.76v39.18c0,13.46-7.03,19.59-16.48,19.59s-16.48-6.13-16.48-19.59v-39.18h-13.76v39.78c0,21.7,11.96,31.75,30.24,31.75"/><path class="cls-1" d="M1416.34,85.72c11.53,5.66,18.38,12.86,18.38,12.86,0,0-18.9-9.25-32.08-13.73-11.53-3.92-27.84-7.59-27.84-7.59,0,0,22.02-1.11,41.54,8.46"/><path class="cls-1" d="M1412.78,119.32c-2.44,0-4.42-1.98-4.42-4.42,0-1.2,.48-2.29,1.26-3.08,2.46,.89,4.96,1.7,7.5,2.4,.04,.22,.07,.45,.07,.68,0,2.44-1.97,4.42-4.41,4.42"/></g></svg>